<?xml version="1.0" standalone="no"?>
<!DOCTYPE svg PUBLIC "-//W3C//DTD SVG 20010904//EN"
 "http://www.w3.org/TR/2001/REC-SVG-20010904/DTD/svg10.dtd">
<svg version="1.0" xmlns="http://www.w3.org/2000/svg"
 width="500.000000pt" height="500.000000pt" viewBox="0 0 500.000000 500.000000"
 preserveAspectRatio="xMidYMid meet">

<g transform="translate(0.000000,500.000000) scale(0.100000,-0.100000)"
fill="#000000" stroke="none">
<path d="M1 3178 c1 -1101 5 -1758 10 -1658 11 223 46 630 70 820 24 193 70
482 76 476 2 -2 -5 -116 -16 -252 -12 -137 -35 -456 -52 -709 -29 -435 -32
-465 -60 -555 l-29 -94 0 -603 0 -603 2500 0 2500 0 0 2500 0 2500 -1138 0
-1139 0 -12 -23 c-11 -20 -28 -26 -149 -45 -432 -69 -873 -215 -1197 -395
-186 -104 -417 -271 -515 -372 -25 -26 -54 -51 -65 -57 -32 -17 71 87 190 189
368 319 797 501 1575 668 l155 33 -1352 1 -1353 1 1 -1822z m2468 1417 c-56
-114 -84 -219 -75 -277 17 -103 140 -260 280 -356 41 -29 78 -52 82 -52 15 0
-5 123 -24 149 l-19 27 81 -8 c250 -23 397 -59 551 -132 63 -30 115 -52 115
-49 0 13 -95 182 -141 249 -27 40 -63 84 -81 98 l-33 27 45 -17 c123 -47 552
-229 602 -256 32 -17 83 -57 114 -90 31 -32 57 -58 59 -56 1 2 -2 84 -7 183
-13 265 -16 258 70 126 40 -61 96 -155 123 -209 45 -88 52 -112 71 -230 11
-73 23 -132 27 -132 3 1 40 48 81 106 41 58 77 107 80 109 3 2 -7 -34 -22 -80
-16 -46 -31 -119 -35 -162 -6 -77 -6 -78 13 -56 48 55 155 138 208 164 33 16
62 27 64 25 2 -2 -15 -31 -37 -64 -51 -74 -97 -174 -118 -255 -18 -71 -13
-155 16 -307 11 -52 18 -96 17 -97 -1 -2 -33 48 -70 110 -72 120 -193 295
-181 262 4 -11 32 -85 61 -165 30 -79 64 -179 74 -221 11 -43 36 -115 56 -161
108 -251 130 -305 176 -428 27 -74 54 -142 59 -151 5 -11 3 -48 -6 -101 -15
-87 -71 -287 -84 -301 -4 -4 -13 9 -19 30 -10 34 -10 36 3 19 8 -11 15 -16 15
-12 0 15 -54 193 -76 254 -65 171 -193 380 -252 412 -20 10 -91 62 -157 115
-134 106 -210 150 -341 196 -49 17 -110 44 -136 61 -43 27 -108 107 -108 132
0 6 54 46 120 88 66 43 120 82 120 87 0 17 -199 150 -299 199 l-94 47 -174 1
-173 1 -42 29 c-35 24 -107 117 -153 198 -7 12 -10 -31 -10 -143 0 -195 1
-193 -144 -271 -57 -31 -120 -70 -142 -88 -66 -56 -130 -213 -189 -471 -16
-68 -30 -124 -32 -126 -2 -1 -32 -17 -68 -35 -94 -47 -175 -107 -259 -195 -41
-42 -87 -83 -102 -91 -15 -7 -47 -40 -72 -71 -57 -76 -64 -88 -46 -81 8 3 -20
-47 -62 -111 -42 -64 -104 -166 -138 -227 -33 -61 -71 -122 -85 -137 l-24 -26
-6 38 c-42 263 -23 571 54 905 16 71 28 131 25 134 -2 3 -29 -7 -59 -22 -103
-50 -235 -212 -355 -436 -28 -52 -51 -92 -51 -88 0 12 220 505 343 768 167
358 432 959 425 965 -6 5 -216 -139 -305 -210 -336 -266 -656 -583 -882 -874
-80 -104 -77 -110 -35 83 52 238 155 493 266 661 166 250 357 401 883 700 236
134 446 272 609 402 44 35 80 63 80 63 1 0 -19 -43 -45 -95z m-1709 -518 c0
-2 -12 -14 -27 -28 l-28 -24 24 28 c23 25 31 32 31 24z m-367 -512 c-15 -30
-29 -53 -31 -51 -4 5 46 106 53 106 3 0 -7 -25 -22 -55z m3337 -355 c49 -5 25
-7 -95 -7 -97 0 -142 3 -115 7 59 9 130 9 210 0z m-277 -17 c-7 -2 -21 -2 -30
0 -10 3 -4 5 12 5 17 0 24 -2 18 -5z m157 -369 c0 -2 -9 0 -20 6 -11 6 -20 13
-20 16 0 2 9 0 20 -6 11 -6 20 -13 20 -16z m-3044 -247 c-95 -145 -175 -311
-282 -584 -54 -139 -99 -251 -101 -249 -5 5 107 313 173 474 73 179 167 361
214 412 62 67 61 45 -4 -53z m2167 -49 c87 -61 80 -157 -44 -577 -74 -251
-131 -415 -174 -502 l-32 -66 58 -89 c60 -91 77 -132 34 -79 -28 34 -31 29
-11 -20 19 -45 13 -49 -111 -80 -55 -14 -185 -59 -290 -99 -104 -41 -217 -80
-252 -87 l-63 -13 -25 29 c-40 49 -118 166 -149 224 -70 130 -77 147 -78 191
-1 56 65 210 166 390 39 69 82 145 96 170 73 130 266 356 383 447 67 52 214
142 276 168 28 12 35 12 48 -1 8 -9 15 -19 15 -24 0 -5 -30 -27 -68 -49 -37
-21 -94 -59 -128 -84 l-61 -44 -11 -71 c-24 -145 -13 -341 29 -515 21 -84 21
-90 5 -132 -20 -52 -53 -96 -69 -92 -15 3 -21 -37 -8 -61 15 -28 74 -56 102
-49 43 11 111 174 214 517 78 260 115 415 115 486 0 68 -8 93 -43 132 l-21 22
35 -11 c19 -7 46 -21 62 -31z m-1632 -475 c-12 -20 -14 -14 -5 12 4 9 9 14 11
11 3 -2 0 -13 -6 -23z m700 -80 c-81 -122 -179 -294 -217 -381 -35 -81 -44
-94 -44 -67 0 25 97 222 166 335 49 81 138 200 150 200 2 0 -23 -39 -55 -87z
m51 15 c-7 -7 -12 -8 -12 -2 0 6 3 14 7 17 3 4 9 5 12 2 2 -3 -1 -11 -7 -17z
m-841 -145 c-12 -20 -14 -14 -5 12 4 9 9 14 11 11 3 -2 0 -13 -6 -23z m-46
-124 c-19 -52 -34 -84 -35 -71 0 23 59 176 66 169 2 -2 -12 -46 -31 -98z
m2093 -306 c-172 -180 -268 -288 -268 -303 0 -5 17 -18 39 -29 89 -46 141
-116 141 -191 0 -22 -3 -40 -6 -40 -3 0 -24 14 -45 31 -26 20 -39 39 -39 55 0
50 -42 114 -103 155 -33 21 -63 39 -68 39 -18 0 -8 19 27 57 20 21 45 50 55
65 11 14 43 45 72 69 l52 43 -35 -39 c-38 -42 -18 -32 52 26 44 38 188 139
196 139 3 0 -29 -35 -70 -77z m-3 51 c-26 -20 -55 -36 -55 -30 0 5 63 46 70
46 3 -1 -4 -8 -15 -16z m-539 -498 c-26 -36 -51 -75 -56 -88 -11 -24 -12 -27
-73 -125 -42 -68 -58 -83 -31 -30 69 134 196 334 202 317 2 -4 -17 -38 -42
-74z m169 -23 l48 -92 -31 -68 c-17 -37 -36 -80 -41 -96 -18 -47 -80 -137 -95
-137 -16 0 -25 -19 -18 -38 3 -10 7 -10 19 0 8 7 22 13 30 14 11 2 8 -5 -8
-24 -13 -15 -26 -31 -30 -35 -3 -4 -29 1 -58 13 -28 11 -58 20 -66 20 -9 0
-25 -33 -43 -91 -23 -72 -35 -95 -58 -110 -69 -45 -78 -19 -40 107 58 187 91
261 214 464 96 159 113 183 122 173 4 -4 29 -49 55 -100z m-215 63 c0 -15 -14
-35 -21 -30 -8 5 -13 -10 -10 -29 2 -11 -26 -62 -42 -79 -8 -7 -40 -65 -71
-128 -32 -63 -62 -119 -68 -125 -6 -5 -3 5 6 23 10 18 16 38 14 44 -2 6 -12
-8 -22 -31 -11 -22 -22 -41 -26 -41 -12 0 -132 80 -196 131 -53 42 -67 48
-112 50 -29 2 -49 6 -45 9 13 12 74 30 99 30 12 0 123 40 246 90 205 82 248
97 248 86z m406 -318 c105 -117 259 -215 519 -330 l110 -49 -150 6 c-179 8
-335 27 -498 61 l-120 25 -58 -63 c-74 -83 -189 -177 -236 -193 -26 -9 -45
-10 -65 -3 -34 12 -35 21 -5 35 27 13 131 96 195 157 44 41 182 236 182 256 0
15 73 140 81 140 4 0 24 -19 45 -42z m-166 -38 c-6 -11 -13 -20 -16 -20 -2 0
0 9 6 20 6 11 13 20 16 20 2 0 0 -9 -6 -20z m599 6 c59 -31 275 -97 394 -121
263 -52 563 -57 852 -14 77 12 154 22 170 22 17 1 32 5 35 8 3 3 23 9 45 12
l40 6 -34 -15 c-18 -8 -47 -16 -65 -18 -17 -2 -85 -15 -152 -29 -351 -76 -723
-59 -1056 49 -98 32 -284 111 -265 113 4 1 20 -5 36 -13z m1271 -182 c-177
-57 -504 -123 -709 -144 -147 -14 -195 -12 -96 6 458 81 663 118 735 134 102
22 132 23 70 4z"/>
<path d="M4234 2847 c3 -12 6 -31 6 -42 0 -14 26 -41 77 -80 107 -84 107 -84
88 -38 -9 21 -26 62 -38 90 -21 50 -25 54 -81 73 l-58 19 6 -22z"/>
<path d="M2725 2328 c-2 -7 -9 -40 -15 -73 -7 -33 -32 -129 -56 -214 -25 -84
-43 -156 -40 -158 2 -3 16 35 31 84 15 48 32 106 40 128 7 22 20 78 29 125 9
47 18 93 20 103 5 19 -3 23 -9 5z"/>
<path d="M2890 1289 c0 -5 5 -7 10 -4 6 3 10 8 10 11 0 2 -4 4 -10 4 -5 0 -10
-5 -10 -11z"/>
<path d="M2648 400 c-9 -10 -25 -31 -34 -47 -15 -24 -11 -22 24 12 40 37 52
56 35 54 -5 0 -16 -9 -25 -19z"/>
<path d="M2569 303 c-13 -16 -12 -17 4 -4 9 7 17 15 17 17 0 8 -8 3 -21 -13z"/>
</g>
</svg>
